<?xml version="1.0" encoding="utf-8"?>
<!-- Generator: Adobe Illustrator 27.0.0, SVG Export Plug-In . SVG Version: 6.00 Build 0)  -->
<svg version="1.1" id="Layer_1" xmlns="http://www.w3.org/2000/svg" xmlns:xlink="http://www.w3.org/1999/xlink" x="0px" y="0px"
	 viewBox="0 0 190 47" style="enable-background:new 0 0 190 47;" xml:space="preserve">
<style type="text/css">
	.st0{fill:#2E2E2E;}
	.st1{fill-rule:evenodd;clip-rule:evenodd;fill:#434343;}
	.st2{fill:#EA4335;}
	.st3{fill:#FBBC04;}
	.st4{fill:#4285F4;}
	.st5{fill:#34A853;}
</style>
<path class="st0" d="M56.6,15l-1.2-3.1h-4L50.3,15H49l3.9-10H54l3.9,10H56.6z M53.9,7.8c0-0.1-0.1-0.2-0.1-0.4S53.7,7,53.6,6.8
	c-0.1-0.2-0.1-0.4-0.1-0.5c0,0.2-0.1,0.4-0.2,0.6c0,0.2-0.1,0.4-0.2,0.5c0,0.2-0.1,0.3-0.1,0.4l-1.1,3H55L53.9,7.8z M62.7,7.4
	c0.9,0,1.6,0.2,2,0.7c0.5,0.4,0.7,1.1,0.7,2.1V15h-1.2v-4.8c0-0.6-0.1-1.1-0.4-1.4c-0.3-0.3-0.7-0.4-1.3-0.4c-0.8,0-1.4,0.2-1.7,0.7
	c-0.3,0.5-0.5,1.1-0.5,2V15h-1.2V7.5h1l0.2,1h0.1C60.5,8.3,60.8,8,61,7.9c0.3-0.2,0.5-0.3,0.8-0.4C62.1,7.4,62.4,7.4,62.7,7.4z
	 M70.4,15.1c-0.9,0-1.7-0.3-2.2-1c-0.6-0.7-0.8-1.6-0.8-2.9s0.3-2.3,0.8-2.9c0.6-0.7,1.3-1,2.3-1c0.4,0,0.7,0.1,1,0.2
	c0.3,0.1,0.5,0.2,0.8,0.4c0.2,0.2,0.4,0.4,0.5,0.6h0.1c0-0.1,0-0.3-0.1-0.5c0-0.2,0-0.4,0-0.6v-3H74V15h-1l-0.2-1h-0.1
	c-0.1,0.2-0.3,0.4-0.5,0.6c-0.2,0.2-0.5,0.3-0.8,0.4C71.2,15.1,70.8,15.1,70.4,15.1z M70.6,14.1c0.8,0,1.3-0.2,1.7-0.6
	c0.3-0.4,0.5-1.1,0.5-2v-0.2c0-0.9-0.2-1.6-0.5-2.1c-0.3-0.5-0.9-0.8-1.7-0.8c-0.7,0-1.2,0.3-1.5,0.8c-0.3,0.5-0.5,1.2-0.5,2.1
	c0,0.9,0.2,1.6,0.5,2.1C69.5,13.9,70,14.1,70.6,14.1z M79.9,7.4c0.1,0,0.3,0,0.4,0c0.2,0,0.3,0,0.4,0.1l-0.2,1.1
	c-0.1,0-0.3-0.1-0.4-0.1c-0.1,0-0.3,0-0.4,0c-0.3,0-0.6,0.1-0.8,0.2S78.5,9,78.3,9.2c-0.2,0.2-0.4,0.5-0.5,0.8
	c-0.1,0.3-0.2,0.7-0.2,1v4h-1.2V7.5h1l0.1,1.4h0.1c0.2-0.3,0.4-0.5,0.6-0.8c0.2-0.2,0.5-0.4,0.8-0.5C79.2,7.4,79.6,7.4,79.9,7.4z
	 M88.4,11.2c0,0.6-0.1,1.2-0.3,1.7c-0.2,0.5-0.4,0.9-0.7,1.2c-0.3,0.3-0.7,0.6-1.1,0.8c-0.4,0.2-0.9,0.3-1.4,0.3
	c-0.5,0-1-0.1-1.4-0.3c-0.4-0.2-0.8-0.4-1.1-0.8c-0.3-0.3-0.6-0.7-0.7-1.2c-0.2-0.5-0.3-1-0.3-1.7c0-0.8,0.1-1.5,0.4-2.1
	c0.3-0.6,0.7-1,1.2-1.3c0.5-0.3,1.1-0.5,1.9-0.5c0.7,0,1.3,0.2,1.8,0.5c0.5,0.3,0.9,0.7,1.2,1.3C88.3,9.7,88.4,10.4,88.4,11.2z
	 M82.8,11.2c0,0.6,0.1,1.1,0.2,1.5c0.2,0.4,0.4,0.8,0.7,1c0.3,0.2,0.7,0.4,1.2,0.4s0.9-0.1,1.2-0.4c0.3-0.2,0.6-0.6,0.7-1
	c0.2-0.4,0.2-1,0.2-1.5c0-0.6-0.1-1.1-0.2-1.5c-0.2-0.4-0.4-0.7-0.7-1c-0.3-0.2-0.7-0.3-1.2-0.3c-0.8,0-1.3,0.3-1.7,0.8
	C82.9,9.7,82.8,10.3,82.8,11.2z M91.6,7.5V15h-1.2V7.5H91.6z M91,4.7c0.2,0,0.4,0.1,0.5,0.2c0.1,0.1,0.2,0.3,0.2,0.6
	c0,0.3-0.1,0.5-0.2,0.6c-0.1,0.1-0.3,0.2-0.5,0.2c-0.2,0-0.4-0.1-0.5-0.2s-0.2-0.3-0.2-0.6c0-0.3,0.1-0.5,0.2-0.6
	C90.6,4.7,90.8,4.7,91,4.7z M96.7,15.1c-0.9,0-1.7-0.3-2.2-1c-0.6-0.7-0.8-1.6-0.8-2.9s0.3-2.3,0.8-2.9c0.6-0.7,1.3-1,2.3-1
	c0.4,0,0.7,0.1,1,0.2c0.3,0.1,0.5,0.2,0.8,0.4c0.2,0.2,0.4,0.4,0.5,0.6h0.1c0-0.1,0-0.3-0.1-0.5c0-0.2,0-0.4,0-0.6v-3h1.2V15h-1
	L99,14H99c-0.1,0.2-0.3,0.4-0.5,0.6c-0.2,0.2-0.5,0.3-0.8,0.4C97.4,15.1,97,15.1,96.7,15.1z M96.9,14.1c0.8,0,1.3-0.2,1.7-0.6
	c0.3-0.4,0.5-1.1,0.5-2v-0.2c0-0.9-0.2-1.6-0.5-2.1c-0.3-0.5-0.9-0.8-1.7-0.8c-0.7,0-1.2,0.3-1.5,0.8c-0.3,0.5-0.5,1.2-0.5,2.1
	c0,0.9,0.2,1.6,0.5,2.1C95.7,13.9,96.2,14.1,96.9,14.1z M109.1,7.4c0.9,0,1.6,0.2,2,0.6c0.4,0.4,0.7,1,0.7,1.9V15h-0.9l-0.2-1.1
	h-0.1c-0.2,0.3-0.4,0.5-0.7,0.7c-0.2,0.2-0.5,0.3-0.8,0.4c-0.3,0.1-0.6,0.1-1.1,0.1c-0.4,0-0.9-0.1-1.2-0.2
	c-0.4-0.2-0.6-0.4-0.8-0.7c-0.2-0.3-0.3-0.8-0.3-1.3c0-0.7,0.3-1.3,0.9-1.7c0.6-0.4,1.5-0.6,2.7-0.7l1.3,0V10c0-0.6-0.1-1.1-0.4-1.3
	c-0.3-0.2-0.7-0.4-1.1-0.4c-0.4,0-0.8,0.1-1.1,0.2c-0.4,0.1-0.7,0.2-1,0.4L106.5,8c0.3-0.2,0.7-0.3,1.2-0.4
	C108.1,7.4,108.6,7.4,109.1,7.4z M109.5,11.4c-0.9,0-1.6,0.2-1.9,0.4c-0.4,0.3-0.5,0.6-0.5,1.1c0,0.4,0.1,0.7,0.4,0.9
	c0.3,0.2,0.6,0.3,1,0.3c0.6,0,1.2-0.2,1.6-0.5c0.4-0.4,0.6-0.9,0.6-1.6v-0.7L109.5,11.4z M117.7,7.4c0.9,0,1.7,0.3,2.2,1
	c0.6,0.6,0.9,1.6,0.9,2.9c0,0.8-0.1,1.6-0.4,2.2c-0.3,0.6-0.6,1-1.1,1.3c-0.5,0.3-1,0.4-1.6,0.4c-0.4,0-0.7-0.1-1-0.2
	c-0.3-0.1-0.6-0.2-0.8-0.4c-0.2-0.2-0.4-0.3-0.5-0.5h-0.1c0,0.2,0,0.4,0.1,0.6c0,0.2,0,0.5,0,0.6v3.1h-1.2V7.5h1l0.2,1h0.1
	c0.2-0.2,0.3-0.4,0.5-0.6c0.2-0.2,0.5-0.3,0.8-0.4C116.9,7.4,117.3,7.4,117.7,7.4z M117.4,8.4c-0.5,0-0.9,0.1-1.2,0.3
	c-0.3,0.2-0.5,0.5-0.7,0.9c-0.1,0.4-0.2,0.9-0.2,1.5v0.2c0,0.6,0.1,1.1,0.2,1.6c0.1,0.4,0.4,0.8,0.7,1c0.3,0.2,0.7,0.3,1.3,0.3
	c0.5,0,0.8-0.1,1.1-0.4c0.3-0.3,0.5-0.6,0.7-1c0.1-0.4,0.2-0.9,0.2-1.5c0-0.9-0.2-1.5-0.5-2.1C118.6,8.6,118.1,8.4,117.4,8.4z
	 M126.3,7.4c0.9,0,1.7,0.3,2.2,1c0.6,0.6,0.9,1.6,0.9,2.9c0,0.8-0.1,1.6-0.4,2.2c-0.3,0.6-0.6,1-1.1,1.3c-0.5,0.3-1,0.4-1.6,0.4
	c-0.4,0-0.7-0.1-1-0.2c-0.3-0.1-0.6-0.2-0.8-0.4c-0.2-0.2-0.4-0.3-0.5-0.5h-0.1c0,0.2,0,0.4,0.1,0.6c0,0.2,0,0.5,0,0.6v3.1h-1.2V7.5
	h1l0.2,1h0.1c0.1-0.2,0.3-0.4,0.5-0.6c0.2-0.2,0.5-0.3,0.8-0.4C125.5,7.4,125.9,7.4,126.3,7.4z M126.1,8.4c-0.5,0-0.9,0.1-1.2,0.3
	c-0.3,0.2-0.5,0.5-0.7,0.9s-0.2,0.9-0.2,1.5v0.2c0,0.6,0.1,1.1,0.2,1.6c0.1,0.4,0.3,0.8,0.7,1c0.3,0.2,0.7,0.3,1.3,0.3
	c0.5,0,0.8-0.1,1.1-0.4c0.3-0.3,0.5-0.6,0.7-1c0.1-0.4,0.2-0.9,0.2-1.5c0-0.9-0.2-1.5-0.5-2.1C127.3,8.6,126.7,8.4,126.1,8.4z
	 M141.5,11.2c0,0.6-0.1,1.2-0.3,1.7c-0.2,0.5-0.4,0.9-0.7,1.2c-0.3,0.3-0.7,0.6-1.1,0.8c-0.4,0.2-0.9,0.3-1.4,0.3
	c-0.5,0-1-0.1-1.4-0.3c-0.4-0.2-0.8-0.4-1.1-0.8c-0.3-0.3-0.6-0.7-0.7-1.2c-0.2-0.5-0.3-1-0.3-1.7c0-0.8,0.1-1.5,0.4-2.1
	c0.3-0.6,0.7-1,1.2-1.3c0.5-0.3,1.1-0.5,1.9-0.5c0.7,0,1.3,0.2,1.8,0.5c0.5,0.3,0.9,0.7,1.2,1.3C141.3,9.7,141.5,10.4,141.5,11.2z
	 M135.8,11.2c0,0.6,0.1,1.1,0.2,1.5c0.2,0.4,0.4,0.8,0.7,1c0.3,0.2,0.7,0.4,1.2,0.4s0.9-0.1,1.2-0.4c0.3-0.2,0.6-0.6,0.7-1
	c0.2-0.4,0.2-1,0.2-1.5c0-0.6-0.1-1.1-0.2-1.5c-0.2-0.4-0.4-0.7-0.7-1c-0.3-0.2-0.7-0.3-1.2-0.3c-0.8,0-1.3,0.3-1.7,0.8
	C136,9.7,135.8,10.3,135.8,11.2z M147,7.4c0.9,0,1.6,0.2,2,0.7c0.5,0.4,0.7,1.1,0.7,2.1V15h-1.2v-4.8c0-0.6-0.1-1.1-0.4-1.4
	c-0.3-0.3-0.7-0.4-1.3-0.4c-0.8,0-1.4,0.2-1.7,0.7c-0.3,0.5-0.5,1.1-0.5,2V15h-1.2V7.5h1l0.2,1h0.1c0.2-0.3,0.4-0.5,0.6-0.6
	c0.3-0.2,0.5-0.3,0.8-0.4C146.4,7.4,146.7,7.4,147,7.4z M158.2,14.1c0.2,0,0.4,0,0.6,0c0.2,0,0.4-0.1,0.5-0.1v0.9
	c-0.1,0.1-0.3,0.1-0.6,0.2c-0.2,0-0.5,0.1-0.7,0.1c-0.4,0-0.8-0.1-1.1-0.2c-0.3-0.1-0.6-0.4-0.8-0.7c-0.2-0.3-0.3-0.8-0.3-1.4V8.4
	h-1.1V7.9l1.1-0.5l0.5-1.6h0.7v1.7h2.2v1h-2.2v4.3c0,0.5,0.1,0.8,0.3,1C157.6,14,157.9,14.1,158.2,14.1z M162,7.5c0,0.2,0,0.4,0,0.5
	c0,0.2,0,0.4,0,0.5h0.1c0.2-0.3,0.4-0.5,0.6-0.6c0.2-0.2,0.5-0.3,0.8-0.4c0.3-0.1,0.6-0.1,0.9-0.1c0.6,0,1.1,0.1,1.5,0.3
	c0.4,0.2,0.7,0.5,0.9,0.9c0.2,0.4,0.3,0.9,0.3,1.6V15h-1.2v-4.8c0-0.6-0.1-1.1-0.4-1.4c-0.3-0.3-0.7-0.4-1.3-0.4
	c-0.6,0-1,0.1-1.3,0.3c-0.3,0.2-0.5,0.5-0.7,0.9c-0.1,0.4-0.2,0.9-0.2,1.5V15h-1.2V4.4h1.2V7.5z M172.3,7.4c0.6,0,1.2,0.1,1.7,0.4
	c0.5,0.3,0.8,0.7,1.1,1.2c0.3,0.5,0.4,1.1,0.4,1.8v0.7h-5.1c0,0.8,0.2,1.5,0.6,1.9c0.4,0.4,1,0.7,1.8,0.7c0.5,0,0.9,0,1.3-0.1
	c0.4-0.1,0.8-0.2,1.1-0.4v1.1c-0.4,0.2-0.8,0.3-1.1,0.4c-0.4,0.1-0.8,0.1-1.3,0.1c-0.7,0-1.3-0.1-1.9-0.4c-0.5-0.3-1-0.7-1.3-1.3
	c-0.3-0.6-0.4-1.3-0.4-2.1c0-0.8,0.1-1.5,0.4-2.1c0.3-0.6,0.7-1,1.2-1.4C171.1,7.5,171.7,7.4,172.3,7.4z M172.3,8.4
	c-0.6,0-1.1,0.2-1.4,0.6c-0.3,0.4-0.5,0.9-0.6,1.6h3.8c0-0.4-0.1-0.8-0.2-1.1c-0.1-0.3-0.3-0.6-0.6-0.7
	C173.1,8.5,172.7,8.4,172.3,8.4z"/>
<path class="st1" d="M59.9,40.4C54,40.4,49,35.6,49,29.7C49,23.8,54,19,59.9,19c3.3,0,5.6,1.3,7.4,2.9L65.2,24
	c-1.3-1.2-3-2.1-5.3-2.1c-4.3,0-7.7,3.5-7.7,7.8c0,4.3,3.4,7.8,7.7,7.8c2.8,0,4.4-1.1,5.4-2.1c0.8-0.8,1.4-2,1.6-3.7h-7v-2.9h9.9
	c0.1,0.5,0.2,1.2,0.2,1.8c0,2.2-0.6,4.9-2.5,6.8C65.5,39.4,63.1,40.4,59.9,40.4L59.9,40.4z M150.5,19.7h-7.2V40h3v-7.7h4.2
	c3.4,0,6.6-2.4,6.6-6.3C157.2,22.1,153.9,19.7,150.5,19.7L150.5,19.7z M150.6,29.5h-4.3v-6.9h4.3c0.9,0,1.8,0.4,2.5,1
	c0.7,0.6,1,1.5,1,2.5c0,0.9-0.4,1.8-1,2.5S151.5,29.5,150.6,29.5L150.6,29.5L150.6,29.5z M158.9,19.7h3V40h-3V19.7z M182.8,35.8
	l3.5-8.8h3.4l-8.3,19.1h-3.2l3.1-6.8L175.8,27h3.3l3.6,8.8H182.8z M163.9,29.7c0.9-2.1,3.2-3.1,5.4-3.1v0c3.5,0,6.2,2,6.2,5.6v7.8
	h-2.9v-1.6h-0.1c-0.7,1.1-1.8,2-3.8,2c-2.7,0-5-1.7-5-4.5c0-3,2.9-4.6,5.8-4.6c1.1,0,2.2,0.3,3.1,0.8v-0.2c0-1.7-1.6-2.6-3.2-2.6
	c-1.1,0-2.2,0.4-2.8,1.5L163.9,29.7z M166.6,35.9c0,1.2,1.4,1.7,2.4,1.7c0.9,0,1.7-0.3,2.4-0.9c0.7-0.6,1.1-1.4,1.2-2.3
	c-0.8-0.5-1.8-0.7-2.8-0.7C168.3,33.8,166.6,34.4,166.6,35.9z M78.4,40.4c3.8,0,6.8-2.9,6.8-6.9c0-4-3.1-6.9-6.8-6.9
	c-3.8,0-6.8,2.9-6.8,6.9C71.6,37.5,74.7,40.4,78.4,40.4z M78.4,29.3c2.1,0,3.8,1.7,3.8,4.2c0,2.5-1.8,4.2-3.8,4.2
	c-2.1,0-3.8-1.7-3.8-4.2C74.6,31,76.4,29.3,78.4,29.3z M100.5,33.5c0,4-3.1,6.9-6.8,6.9c-3.8,0-6.8-2.9-6.8-6.9c0-4,3.1-6.9,6.8-6.9
	C97.5,26.6,100.5,29.5,100.5,33.5z M97.6,33.5c0-2.5-1.8-4.2-3.8-4.2s-3.8,1.7-3.8,4.2c0,2.5,1.8,4.2,3.8,4.2S97.6,36,97.6,33.5z
	 M115.5,27L115.5,27L115.5,27L115.5,27z M112.6,27h2.9v12.4c0,5.1-3,7.2-6.6,7.2c-3.4,0-5.4-2.2-6.1-4.1l2.7-1.1
	c0.5,1.1,1.6,2.5,3.5,2.5c2.3,0,3.7-1.4,3.7-4v-1h-0.1c-0.7,0.8-2,1.6-3.6,1.6c-3.5,0-6.6-3-6.6-6.9c0-3.9,3.2-6.9,6.6-6.9
	c1.7,0,3,0.7,3.6,1.5h0.1V27z M109.1,29.3c2.1,0,3.7,1.8,3.7,4.2c0,2.4-1.6,4.2-3.7,4.2c-2.1,0-3.9-1.7-3.9-4.2
	C105.2,31.1,107,29.3,109.1,29.3z M120.8,19.7V40h-3V19.7H120.8z M135.1,37.4l-2.4-1.6v0c-0.8,1.2-1.9,1.9-3.4,1.9
	c-1.5,0-2.6-0.7-3.4-2.1l9.3-3.8l-0.3-0.8c-0.6-1.5-2.4-4.4-5.9-4.4c-3.6,0-6.4,2.8-6.4,6.9c0,3.9,2.8,6.9,6.8,6.9
	C132.5,40.4,134.4,38.5,135.1,37.4z M125.5,33.3l6.2-2.6c-0.3-0.9-1.4-1.5-2.6-1.5C127.6,29.3,125.4,30.6,125.5,33.3z"/>
<path class="st2" d="M15.4,23.3l-15.2,16c0.5,1.7,2.1,3,4,3c0.8,0,1.5-0.2,2.1-0.6l0,0L23.4,32L15.4,23.3L15.4,23.3z"/>
<path class="st3" d="M30.8,20.6L30.8,20.6l-7.4-4.2L15,23.7l8.4,8.3l7.4-4.2c1.3-0.7,2.2-2,2.2-3.6C32.9,22.6,32.1,21.3,30.8,20.6z"
	/>
<path class="st4" d="M0.1,9C0.1,9.3,0,9.7,0,10.1v28.2c0,0.4,0,0.7,0.1,1l15.7-15.5L0.1,9z"/>
<path class="st5" d="M15.5,24.2l7.9-7.8L6.2,6.6C5.6,6.2,4.9,6,4.1,6c-1.9,0-3.5,1.3-4,3L15.5,24.2z"/>
</svg>
