<?xml version="1.0" encoding="utf-8"?>
<!-- Generator: Adobe Illustrator 27.0.0, SVG Export Plug-In . SVG Version: 6.00 Build 0)  -->
<svg version="1.1" id="Layer_1" xmlns="http://www.w3.org/2000/svg" xmlns:xlink="http://www.w3.org/1999/xlink" x="0px" y="0px"
	 viewBox="0 0 193 54" style="enable-background:new 0 0 193 54;" xml:space="preserve">
<style type="text/css">
	.st0{fill:#1D1D1B;}
</style>
<path class="st0" d="M66.4,46l-2.5-6.4h-8.2L53.3,46h-2.6l8.1-20.8h2.3L69.1,46H66.4z M60.8,31c-0.1-0.2-0.2-0.4-0.3-0.8
	s-0.3-0.8-0.4-1.2c-0.1-0.4-0.2-0.8-0.3-1c-0.1,0.4-0.2,0.8-0.3,1.2c-0.1,0.4-0.2,0.7-0.3,1.1c-0.1,0.3-0.2,0.6-0.3,0.8l-2.3,6.3
	h6.6L60.8,31z M76.4,25.3c2.7,0,4.7,0.5,5.9,1.6c1.2,1.1,1.9,2.6,1.9,4.5c0,0.9-0.1,1.7-0.4,2.5c-0.3,0.8-0.7,1.5-1.4,2.1
	c-0.6,0.6-1.5,1.1-2.6,1.5c-1.1,0.3-2.4,0.5-3.9,0.5h-2.4V46H71V25.3H76.4z M76.2,27.5h-2.6v8.2h2.1c1.3,0,2.4-0.1,3.3-0.4
	c0.9-0.3,1.5-0.7,1.9-1.4c0.4-0.6,0.6-1.4,0.6-2.4c0-1.3-0.4-2.3-1.3-3C79.4,27.9,78,27.5,76.2,27.5z M93,25.3
	c2.7,0,4.7,0.5,5.9,1.6c1.2,1.1,1.9,2.6,1.9,4.5c0,0.9-0.1,1.7-0.4,2.5c-0.3,0.8-0.7,1.5-1.4,2.1c-0.6,0.6-1.5,1.1-2.6,1.5
	c-1.1,0.3-2.4,0.5-3.9,0.5h-2.4V46h-2.6V25.3H93z M92.8,27.5h-2.6v8.2h2.1c1.3,0,2.4-0.1,3.3-0.4c0.9-0.3,1.5-0.7,1.9-1.4
	c0.4-0.6,0.6-1.4,0.6-2.4c0-1.3-0.4-2.3-1.3-3C95.9,27.9,94.6,27.5,92.8,27.5z M122.4,40.5c0,1.2-0.3,2.3-0.9,3.2
	c-0.6,0.9-1.5,1.5-2.6,2c-1.1,0.5-2.4,0.7-3.9,0.7c-0.8,0-1.5,0-2.2-0.1c-0.7-0.1-1.3-0.2-1.9-0.3c-0.6-0.2-1.1-0.3-1.5-0.6v-2.5
	c0.7,0.3,1.6,0.6,2.6,0.8c1,0.3,2.1,0.4,3.2,0.4c1,0,1.9-0.1,2.6-0.4c0.7-0.3,1.2-0.7,1.6-1.2c0.3-0.5,0.5-1.1,0.5-1.8
	s-0.1-1.2-0.4-1.7c-0.3-0.5-0.8-0.9-1.5-1.3c-0.7-0.4-1.7-0.8-2.9-1.3c-0.9-0.3-1.7-0.7-2.3-1c-0.7-0.4-1.2-0.8-1.7-1.3
	c-0.4-0.5-0.8-1-1-1.7c-0.2-0.6-0.3-1.3-0.3-2.1c0-1.1,0.3-2,0.8-2.8c0.6-0.8,1.3-1.4,2.3-1.8c1-0.4,2.2-0.6,3.5-0.6
	c1.1,0,2.2,0.1,3.1,0.3s1.8,0.5,2.6,0.8l-0.8,2.2c-0.7-0.3-1.5-0.6-2.3-0.8c-0.8-0.2-1.7-0.3-2.6-0.3c-0.9,0-1.6,0.1-2.2,0.4
	c-0.6,0.3-1,0.6-1.3,1.1c-0.3,0.4-0.4,1-0.4,1.6c0,0.7,0.1,1.3,0.4,1.7c0.3,0.5,0.8,0.9,1.4,1.2c0.7,0.4,1.5,0.8,2.7,1.2
	c1.2,0.4,2.2,0.9,3.1,1.5c0.9,0.5,1.5,1.1,1.9,1.8C122.1,38.5,122.4,39.4,122.4,40.5z M132.1,46h-2.6V27.6H123v-2.3h15.5v2.3h-6.4
	V46z M158.1,35.6c0,1.6-0.2,3.1-0.6,4.4c-0.4,1.3-1,2.4-1.8,3.4c-0.8,0.9-1.8,1.7-3,2.2c-1.2,0.5-2.6,0.8-4.1,0.8
	c-1.6,0-3-0.3-4.2-0.8c-1.2-0.5-2.2-1.2-3-2.2c-0.8-0.9-1.4-2.1-1.8-3.4c-0.4-1.3-0.6-2.8-0.6-4.4c0-2.1,0.3-4,1-5.6
	s1.7-2.8,3.2-3.7c1.4-0.9,3.2-1.3,5.4-1.3c2.1,0,3.8,0.4,5.2,1.3c1.4,0.9,2.5,2.1,3.2,3.7C157.8,31.6,158.1,33.5,158.1,35.6z
	 M141.8,35.6c0,1.7,0.2,3.2,0.7,4.5c0.5,1.3,1.2,2.2,2.2,2.9c1,0.7,2.3,1,3.9,1c1.6,0,2.8-0.3,3.8-1c1-0.7,1.7-1.6,2.2-2.9
	c0.5-1.3,0.7-2.8,0.7-4.5c0-2.6-0.5-4.6-1.6-6.1c-1.1-1.5-2.8-2.2-5.1-2.2c-1.6,0-2.9,0.3-3.9,1c-1,0.7-1.8,1.6-2.2,2.9
	C142,32.4,141.8,33.9,141.8,35.6z M167.4,25.3c1.7,0,3.1,0.2,4.2,0.7c1.1,0.4,2,1.1,2.5,1.9c0.5,0.9,0.8,2,0.8,3.3
	c0,1.1-0.2,2-0.6,2.8c-0.4,0.7-0.9,1.3-1.6,1.8c-0.6,0.4-1.3,0.8-2,1l5.7,9.3h-3l-5-8.6h-4.1V46h-2.6V25.3H167.4z M167.3,27.6h-3
	v7.7h3.1c1.1,0,2-0.1,2.8-0.4c0.7-0.3,1.2-0.8,1.6-1.3c0.3-0.6,0.5-1.3,0.5-2.2c0-0.9-0.2-1.6-0.6-2.2c-0.3-0.5-0.9-0.9-1.6-1.2
	C169.4,27.7,168.4,27.6,167.3,27.6z M190.3,46h-11.6V25.3h11.6v2.3h-9v6.5h8.4v2.3h-8.4v7.4h9V46z"/>
<path class="st0" d="M60,9.9c0,1.1-0.2,2.1-0.6,2.8c-0.4,0.8-1,1.3-1.8,1.7S55.9,15,54.8,15H52V5h3.1c1,0,1.9,0.2,2.6,0.6
	c0.7,0.4,1.3,0.9,1.7,1.7C59.8,7.9,60,8.8,60,9.9z M58.7,9.9c0-0.9-0.1-1.6-0.4-2.2c-0.3-0.6-0.7-1-1.3-1.3c-0.6-0.3-1.2-0.4-2-0.4
	h-1.6v7.8h1.4c1.4,0,2.4-0.3,3-1C58.3,12.3,58.7,11.3,58.7,9.9z M67.6,11.2c0,0.6-0.1,1.2-0.3,1.7c-0.2,0.5-0.4,0.9-0.7,1.2
	c-0.3,0.3-0.7,0.6-1.1,0.8c-0.4,0.2-0.9,0.3-1.4,0.3c-0.5,0-1-0.1-1.4-0.3c-0.4-0.2-0.8-0.4-1.1-0.8c-0.3-0.3-0.6-0.7-0.7-1.2
	c-0.2-0.5-0.3-1-0.3-1.7c0-0.8,0.1-1.5,0.4-2.1c0.3-0.6,0.7-1,1.2-1.3c0.5-0.3,1.1-0.5,1.9-0.5c0.7,0,1.3,0.2,1.8,0.5
	c0.5,0.3,0.9,0.7,1.2,1.3C67.4,9.7,67.6,10.4,67.6,11.2z M61.9,11.2c0,0.6,0.1,1.1,0.2,1.5c0.2,0.4,0.4,0.8,0.7,1
	c0.3,0.2,0.7,0.4,1.2,0.4c0.5,0,0.9-0.1,1.2-0.4c0.3-0.2,0.6-0.6,0.7-1c0.2-0.4,0.2-1,0.2-1.5c0-0.6-0.1-1.1-0.2-1.5
	c-0.2-0.4-0.4-0.7-0.7-1c-0.3-0.2-0.7-0.3-1.2-0.3c-0.8,0-1.3,0.3-1.7,0.8C62.1,9.7,61.9,10.3,61.9,11.2z M73.1,10.8
	c-0.1-0.2-0.1-0.4-0.2-0.6c-0.1-0.2-0.1-0.4-0.2-0.5c0-0.2-0.1-0.3-0.1-0.5s-0.1-0.3-0.1-0.4h-0.1c0,0.1,0,0.2-0.1,0.4
	c0,0.1-0.1,0.3-0.1,0.5c0,0.2-0.1,0.4-0.1,0.6c0,0.2-0.1,0.4-0.2,0.6L70.7,15h-1.4l-2.1-7.5h1.3l1,4c0.1,0.3,0.1,0.5,0.2,0.8
	c0.1,0.3,0.1,0.5,0.2,0.8c0.1,0.2,0.1,0.5,0.1,0.6h0.1c0-0.1,0.1-0.3,0.1-0.4s0.1-0.3,0.1-0.5c0-0.2,0.1-0.4,0.1-0.6
	c0.1-0.2,0.1-0.4,0.2-0.5l1.3-4.2h1.3l1.3,4.2c0.1,0.2,0.1,0.4,0.2,0.7c0.1,0.2,0.1,0.5,0.2,0.7c0.1,0.2,0.1,0.4,0.1,0.6h0.1
	c0-0.2,0.1-0.4,0.1-0.6c0.1-0.2,0.1-0.5,0.2-0.8c0.1-0.3,0.1-0.6,0.2-0.9l1-4h1.3L75.8,15h-1.4L73.1,10.8z M81.9,7.4
	c0.9,0,1.6,0.2,2,0.7c0.5,0.4,0.7,1.1,0.7,2.1V15h-1.2v-4.8c0-0.6-0.1-1.1-0.4-1.4c-0.3-0.3-0.7-0.4-1.3-0.4c-0.8,0-1.4,0.2-1.7,0.7
	c-0.3,0.5-0.5,1.1-0.5,2V15h-1.2V7.5h1l0.2,1h0.1c0.2-0.3,0.4-0.5,0.6-0.6c0.3-0.2,0.5-0.3,0.8-0.4C81.2,7.4,81.5,7.4,81.9,7.4z
	 M87.1,15h-1.2V4.4h1.2V15z M95,11.2c0,0.6-0.1,1.2-0.3,1.7c-0.2,0.5-0.4,0.9-0.7,1.2c-0.3,0.3-0.7,0.6-1.1,0.8
	c-0.4,0.2-0.9,0.3-1.4,0.3c-0.5,0-1-0.1-1.4-0.3c-0.4-0.2-0.8-0.4-1.1-0.8c-0.3-0.3-0.6-0.7-0.7-1.2c-0.2-0.5-0.3-1-0.3-1.7
	c0-0.8,0.1-1.5,0.4-2.1c0.3-0.6,0.7-1,1.2-1.3c0.5-0.3,1.1-0.5,1.9-0.5c0.7,0,1.3,0.2,1.8,0.5c0.5,0.3,0.9,0.7,1.2,1.3
	C94.9,9.7,95,10.4,95,11.2z M89.4,11.2c0,0.6,0.1,1.1,0.2,1.5c0.2,0.4,0.4,0.8,0.7,1c0.3,0.2,0.7,0.4,1.2,0.4s0.9-0.1,1.2-0.4
	c0.3-0.2,0.6-0.6,0.7-1c0.2-0.4,0.2-1,0.2-1.5c0-0.6-0.1-1.1-0.2-1.5c-0.2-0.4-0.4-0.7-0.7-1c-0.3-0.2-0.7-0.3-1.2-0.3
	c-0.8,0-1.3,0.3-1.7,0.8C89.5,9.7,89.4,10.3,89.4,11.2z M98.8,7.4c0.9,0,1.6,0.2,2,0.6c0.4,0.4,0.7,1,0.7,1.9V15h-0.9l-0.2-1.1h-0.1
	c-0.2,0.3-0.4,0.5-0.7,0.7c-0.2,0.2-0.5,0.3-0.8,0.4c-0.3,0.1-0.6,0.1-1.1,0.1c-0.4,0-0.9-0.1-1.2-0.2c-0.4-0.2-0.6-0.4-0.8-0.7
	c-0.2-0.3-0.3-0.8-0.3-1.3c0-0.7,0.3-1.3,0.9-1.7c0.6-0.4,1.5-0.6,2.7-0.7l1.3,0V10c0-0.6-0.1-1.1-0.4-1.3c-0.3-0.2-0.7-0.4-1.1-0.4
	c-0.4,0-0.8,0.1-1.1,0.2c-0.4,0.1-0.7,0.2-1,0.4L96.3,8c0.3-0.2,0.7-0.3,1.2-0.4C97.9,7.4,98.3,7.4,98.8,7.4z M99.2,11.4
	c-0.9,0-1.6,0.2-1.9,0.4c-0.4,0.3-0.5,0.6-0.5,1.1c0,0.4,0.1,0.7,0.4,0.9c0.3,0.2,0.6,0.3,1,0.3c0.6,0,1.2-0.2,1.6-0.5
	c0.4-0.4,0.6-0.9,0.6-1.6v-0.7L99.2,11.4z M105.5,15.1c-0.9,0-1.7-0.3-2.2-1c-0.6-0.7-0.8-1.6-0.8-2.9s0.3-2.3,0.8-2.9
	c0.6-0.7,1.3-1,2.3-1c0.4,0,0.7,0.1,1,0.2c0.3,0.1,0.5,0.2,0.8,0.4c0.2,0.2,0.4,0.4,0.5,0.6h0.1c0-0.1,0-0.3-0.1-0.5
	c0-0.2,0-0.4,0-0.6v-3h1.2V15h-1l-0.2-1h-0.1c-0.1,0.2-0.3,0.4-0.5,0.6c-0.2,0.2-0.5,0.3-0.8,0.4C106.2,15.1,105.9,15.1,105.5,15.1z
	 M105.7,14.1c0.8,0,1.3-0.2,1.7-0.6c0.3-0.4,0.5-1.1,0.5-2v-0.2c0-0.9-0.2-1.6-0.5-2.1c-0.3-0.5-0.9-0.8-1.7-0.8
	c-0.7,0-1.2,0.3-1.5,0.8c-0.3,0.5-0.5,1.2-0.5,2.1c0,0.9,0.2,1.6,0.5,2.1C104.5,13.9,105,14.1,105.7,14.1z M119.6,11.2
	c0,0.6-0.1,1.2-0.3,1.7c-0.2,0.5-0.4,0.9-0.7,1.2c-0.3,0.3-0.7,0.6-1.1,0.8c-0.4,0.2-0.9,0.3-1.4,0.3c-0.5,0-1-0.1-1.4-0.3
	c-0.4-0.2-0.8-0.4-1.1-0.8c-0.3-0.3-0.6-0.7-0.7-1.2c-0.2-0.5-0.3-1-0.3-1.7c0-0.8,0.1-1.5,0.4-2.1c0.3-0.6,0.7-1,1.2-1.3
	c0.5-0.3,1.1-0.5,1.9-0.5c0.7,0,1.3,0.2,1.8,0.5c0.5,0.3,0.9,0.7,1.2,1.3C119.5,9.7,119.6,10.4,119.6,11.2z M113.9,11.2
	c0,0.6,0.1,1.1,0.2,1.5c0.2,0.4,0.4,0.8,0.7,1c0.3,0.2,0.7,0.4,1.2,0.4s0.9-0.1,1.2-0.4c0.3-0.2,0.6-0.6,0.7-1
	c0.2-0.4,0.2-1,0.2-1.5c0-0.6-0.1-1.1-0.2-1.5c-0.2-0.4-0.4-0.7-0.7-1c-0.3-0.2-0.7-0.3-1.2-0.3c-0.8,0-1.3,0.3-1.7,0.8
	C114.1,9.7,113.9,10.3,113.9,11.2z M124.2,7.4c0.9,0,1.6,0.2,2,0.7c0.5,0.4,0.7,1.1,0.7,2.1V15h-1.2v-4.8c0-0.6-0.1-1.1-0.4-1.4
	c-0.3-0.3-0.7-0.4-1.3-0.4c-0.8,0-1.4,0.2-1.7,0.7c-0.3,0.5-0.5,1.1-0.5,2V15h-1.2V7.5h1l0.2,1h0.1c0.2-0.3,0.4-0.5,0.6-0.6
	c0.3-0.2,0.5-0.3,0.8-0.4C123.6,7.4,123.9,7.4,124.2,7.4z M133.4,14.1c0.2,0,0.4,0,0.6,0c0.2,0,0.4-0.1,0.5-0.1v0.9
	c-0.1,0.1-0.3,0.1-0.6,0.2c-0.2,0-0.5,0.1-0.7,0.1c-0.4,0-0.8-0.1-1.1-0.2c-0.3-0.1-0.6-0.4-0.8-0.7c-0.2-0.3-0.3-0.8-0.3-1.4V8.4
	h-1.1V7.9l1.1-0.5l0.5-1.6h0.7v1.7h2.2v1h-2.2v4.3c0,0.5,0.1,0.8,0.3,1C132.7,14,133,14.1,133.4,14.1z M136.1,7.5c0,0.2,0,0.4,0,0.5
	c0,0.2,0,0.4,0,0.5h0.1c0.2-0.3,0.4-0.5,0.6-0.6c0.2-0.2,0.5-0.3,0.8-0.4c0.3-0.1,0.6-0.1,0.9-0.1c0.6,0,1.1,0.1,1.5,0.3
	c0.4,0.2,0.7,0.5,0.9,0.9c0.2,0.4,0.3,0.9,0.3,1.6V15H140v-4.8c0-0.6-0.1-1.1-0.4-1.4c-0.3-0.3-0.7-0.4-1.3-0.4
	c-0.6,0-1,0.1-1.3,0.3c-0.3,0.2-0.5,0.5-0.7,0.9c-0.1,0.4-0.2,0.9-0.2,1.5V15h-1.2V4.4h1.2V7.5z M145.5,7.4c0.6,0,1.2,0.1,1.7,0.4
	c0.5,0.3,0.8,0.7,1.1,1.2c0.3,0.5,0.4,1.1,0.4,1.8v0.7h-5.1c0,0.8,0.2,1.5,0.6,1.9c0.4,0.4,1,0.7,1.8,0.7c0.5,0,0.9,0,1.3-0.1
	c0.4-0.1,0.8-0.2,1.1-0.4v1.1c-0.4,0.2-0.8,0.3-1.1,0.4c-0.4,0.1-0.8,0.1-1.3,0.1c-0.7,0-1.3-0.1-1.9-0.4c-0.5-0.3-1-0.7-1.3-1.3
	c-0.3-0.6-0.4-1.3-0.4-2.1c0-0.8,0.1-1.5,0.4-2.1c0.3-0.6,0.7-1,1.2-1.4C144.2,7.5,144.8,7.4,145.5,7.4z M145.5,8.4
	c-0.6,0-1.1,0.2-1.4,0.6c-0.3,0.4-0.5,0.9-0.6,1.6h3.8c0-0.4-0.1-0.8-0.2-1.1c-0.1-0.3-0.3-0.6-0.6-0.7
	C146.2,8.5,145.9,8.4,145.5,8.4z"/>
<path class="st0" d="M24.7,25.7c0.1,5.7,4.8,7.6,4.9,7.6c0,0.1-0.8,2.7-2.5,5.4c-1.5,2.3-3.1,4.6-5.6,4.6c-2.4,0-3.2-1.5-6-1.5
	c-2.8,0-3.6,1.4-5.9,1.5c-2.4,0.1-4.2-2.5-5.7-4.8c-3.1-4.7-5.5-13.2-2.3-19c1.6-2.9,4.4-4.7,7.5-4.7c2.3,0,4.6,1.6,6,1.6
	c1.4,0,4.1-2,6.9-1.7c1.2,0,4.5,0.5,6.6,3.7C28.4,18.6,24.6,20.9,24.7,25.7 M20.1,11.7c1.3-1.6,2.1-3.8,1.9-6
	c-1.8,0.1-4,1.3-5.3,2.9c-1.2,1.4-2.2,3.7-1.9,5.8C16.8,14.5,18.9,13.3,20.1,11.7z"/>
</svg>
